<?xml version="1.0"?>
<svg xmlns="http://www.w3.org/2000/svg" xmlns:xlink="http://www.w3.org/1999/xlink" xmlns:svgjs="http://svgjs.com/svgjs" version="1.1" width="512" height="512" x="0" y="0" viewBox="0 0 682.66844 682" style="enable-background:new 0 0 512 512" xml:space="preserve" class=""><g><path xmlns="http://www.w3.org/2000/svg" d="m31.539062 197.753906s4.59375-4.28125 10.765626-10.050781c10.929687-10.195313 28.03125-10.195313 38.949218-.007813.136719.128907.273438.25.410156.371094 25.28125 23.230469 64.589844 23.105469 89.738282-.355468.023437-.019532.042968-.042969.066406-.0625 10.90625-10.121094 27.9375-10.128907 38.84375-.003907.023438.019531.042969.042969.070312.0625 25.273438 23.59375 64.863282 23.59375 90.128907 0 .027343-.023437.046875-.042969.070312-.0625 10.90625-10.117187 27.929688-10.117187 38.835938 0 .027343.019531.046875.039063.070312.0625 25.25 23.574219 64.839844 23.613281 90.132813 0 .023437-.019531.042968-.042969.066406-.0625 10.910156-10.117187 27.941406-10.117187 38.84375.003907.023438.019531.042969.042968.066406.0625 25.148438 23.46875 64.460938 23.585937 89.738282.355468.136718-.121094.273437-.242187.410156-.371094 10.914062-10.1875 28.023437-10.1875 38.933594-.003906 6.1875 5.78125 10.78125 10.0625 10.78125 10.0625 7.574218 7.0625 19.441406 6.652344 26.503906-.921875s6.648437-19.4375-.925782-26.503906c-.003906 0-4.585937-4.273437-10.761718-10.042969-6.96875-6.503906-15.03125-11.207031-23.574219-14.125-4.222656-83.527344-73.164063-151.074218-159.101563-151.074218h-241.203124c-85.996094 0-154.875 67.609374-159.101563 151.078124-8.546875 2.914063-16.609375 7.621094-23.582031 14.128907-6.167969 5.761719-10.746094 10.03125-10.753906 10.035156-7.570313 7.0625-7.988282 18.929687-.921876 26.5 7.0625 7.578125 18.925782 7.992187 26.5.925781zm167.859376-165.167968h241.203124c64.21875 0 116.480469 49.492187 121.421876 112.019531-10.339844 2.589843-20.167969 7.679687-28.472657 15.3125-.140625.128906-.285156.25-.414062.382812-10.898438 10.167969-27.960938 10.1875-38.886719.058594-.027344-.027344-.050781-.050781-.078125-.074219-25.269531-23.585937-64.863281-23.585937-90.128906 0-.027344.023438-.054688.046875-.082031.074219-10.902344 10.109375-27.910157 10.109375-38.808594.003906-.03125-.03125-.058594-.054687-.082032-.078125-25.273437-23.585937-64.863281-23.585937-90.132812 0-.03125.023438-.058594.046875-.082031.078125-10.898438 10.105469-27.910157 10.105469-38.808594-.003906-.03125-.027344-.058594-.050781-.085937-.074219-25.265626-23.585937-64.863282-23.578125-90.128907 0-.027343.023438-.050781.046875-.078125.074219-10.929687 10.125-27.988281 10.105469-38.882812-.058594-.136719-.132812-.273438-.253906-.414063-.382812-8.308593-7.632813-18.136719-12.722657-28.472656-15.3125 4.9375-62.507813 57.171875-112.019531 121.414063-112.019531zm0 0" fill="#ffffff" data-original="#000000" style="" class=""/><path xmlns="http://www.w3.org/2000/svg" d="m581.164062 225.542969h-522.324218c-32.511719 0-58.839844 26.300781-58.839844 58.847656 0 35.15625 26.925781 51.367187 40.089844 55.78125v19.234375c0 65.699219 53.445312 119.144531 119.144531 119.144531h321.53125c65.699219 0 119.148437-53.445312 119.148437-119.144531v-19.238281c12.980469-4.351563 40.085938-20.609375 40.085938-55.777344v-.007813c0-32.429687-26.21875-58.839843-58.835938-58.839843zm-18.75 133.863281c0 45.019531-36.628906 81.644531-81.648437 81.644531h-321.53125c-45.019531 0-81.644531-36.625-81.644531-81.644531v-16.183594h484.824218zm40.085938-75.015625c0 11.8125-9.558594 21.332031-21.335938 21.332031h-522.324218c-11.804688 0-21.339844-9.539062-21.339844-21.339844 0-11.773437 9.511719-21.339843 21.339844-21.339843h522.324218c11.839844 0 21.335938 9.582031 21.335938 21.339843zm0 0" fill="#ffffff" data-original="#000000" style="" class=""/></g></svg>
